<?xml version="1.0" encoding="UTF-8" standalone="no"?>
<!DOCTYPE svg PUBLIC "-//W3C//DTD SVG 1.1//EN"
 "http://www.w3.org/Graphics/SVG/1.1/DTD/svg11.dtd">
<!-- Generated by graphviz version 12.2.1 (20241206.2353)
 -->
<!-- Title: TargetComponents Pages: 1 -->
<svg width="1297pt" height="293pt"
 viewBox="0.00 0.00 1297.00 293.45" xmlns="http://www.w3.org/2000/svg" xmlns:xlink="http://www.w3.org/1999/xlink">
<g id="graph0" class="graph" transform="scale(1 1) rotate(0) translate(21.6 271.85)">
<title>TargetComponents</title>
<polygon fill="#ffffff" stroke="none" points="-21.6,21.6 -21.6,-271.85 1275.4,-271.85 1275.4,21.6 -21.6,21.6"/>
<text text-anchor="middle" x="626.9" y="-227.25" font-family="Arial" font-size="20.00">Proposed target control&#45;plane components</text>
<!-- identity -->
<g id="node1" class="node">
<title>identity</title>
<path fill="#dbeafe" stroke="#2563eb" d="M44.1,-188C44.1,-188 12,-188 12,-188 6,-188 0,-182 0,-176 0,-176 0,-164 0,-164 0,-158 6,-152 12,-152 12,-152 44.1,-152 44.1,-152 50.1,-152 56.1,-158 56.1,-164 56.1,-164 56.1,-176 56.1,-176 56.1,-182 50.1,-188 44.1,-188"/>
<text text-anchor="middle" x="28.05" y="-166.3" font-family="Arial" font-size="11.00" fill="#0f172a">Identity</text>
</g>
<!-- resolver -->
<g id="node2" class="node">
<title>resolver</title>
<path fill="#f8fafc" stroke="#475569" d="M205.45,-188C205.45,-188 108.1,-188 108.1,-188 102.1,-188 96.1,-182 96.1,-176 96.1,-176 96.1,-164 96.1,-164 96.1,-158 102.1,-152 108.1,-152 108.1,-152 205.45,-152 205.45,-152 211.45,-152 217.45,-158 217.45,-164 217.45,-164 217.45,-176 217.45,-176 217.45,-182 211.45,-188 205.45,-188"/>
<text text-anchor="middle" x="156.77" y="-166.3" font-family="Arial" font-size="11.00" fill="#0f172a">Workspace Resolver</text>
</g>
<!-- identity&#45;&gt;resolver -->
<g id="edge1" class="edge">
<title>identity&#45;&gt;resolver</title>
<path fill="none" stroke="#64748b" d="M56.55,-170C65.77,-170 76.51,-170 87.44,-170"/>
<polygon fill="#64748b" stroke="#64748b" points="87.3,-172.45 94.3,-170 87.3,-167.55 87.3,-172.45"/>
</g>
<!-- access -->
<g id="node3" class="node">
<title>access</title>
<path fill="#e0e7ff" stroke="#4f46e5" d="M357.8,-188C357.8,-188 269.45,-188 269.45,-188 263.45,-188 257.45,-182 257.45,-176 257.45,-176 257.45,-164 257.45,-164 257.45,-158 263.45,-152 269.45,-152 269.45,-152 357.8,-152 357.8,-152 363.8,-152 369.8,-158 369.8,-164 369.8,-164 369.8,-176 369.8,-176 369.8,-182 363.8,-188 357.8,-188"/>
<text text-anchor="middle" x="313.62" y="-166.3" font-family="Arial" font-size="11.00" fill="#0f172a">Workspace Access</text>
</g>
<!-- resolver&#45;&gt;access -->
<g id="edge2" class="edge">
<title>resolver&#45;&gt;access</title>
<path fill="none" stroke="#64748b" d="M217.64,-170C227.75,-170 238.28,-170 248.49,-170"/>
<polygon fill="#64748b" stroke="#64748b" points="248.46,-172.45 255.46,-170 248.46,-167.55 248.46,-172.45"/>
</g>
<!-- context -->
<g id="node4" class="node">
<title>context</title>
<path fill="#f8fafc" stroke="#475569" d="M515.77,-219C515.77,-219 423.67,-219 423.67,-219 417.67,-219 411.67,-213 411.67,-207 411.67,-207 411.67,-195 411.67,-195 411.67,-189 417.67,-183 423.67,-183 423.67,-183 515.77,-183 515.77,-183 521.77,-183 527.77,-189 527.77,-195 527.77,-195 527.77,-207 527.77,-207 527.77,-213 521.77,-219 515.77,-219"/>
<text text-anchor="middle" x="469.72" y="-197.3" font-family="Arial" font-size="11.00" fill="#0f172a">Workspace Context</text>
</g>
<!-- access&#45;&gt;context -->
<g id="edge3" class="edge">
<title>access&#45;&gt;context</title>
<path fill="none" stroke="#64748b" d="M370.26,-181.19C380.91,-183.33 392.15,-185.6 403.08,-187.79"/>
<polygon fill="#64748b" stroke="#64748b" points="402.53,-190.18 409.87,-189.16 403.49,-185.38 402.53,-190.18"/>
</g>
<!-- membership -->
<g id="node6" class="node">
<title>membership</title>
<path fill="#f8fafc" stroke="#475569" d="M498.15,-158C498.15,-158 441.3,-158 441.3,-158 435.3,-158 429.3,-152 429.3,-146 429.3,-146 429.3,-134 429.3,-134 429.3,-128 435.3,-122 441.3,-122 441.3,-122 498.15,-122 498.15,-122 504.15,-122 510.15,-128 510.15,-134 510.15,-134 510.15,-146 510.15,-146 510.15,-152 504.15,-158 498.15,-158"/>
<text text-anchor="middle" x="469.72" y="-136.3" font-family="Arial" font-size="11.00" fill="#0f172a">Membership</text>
</g>
<!-- access&#45;&gt;membership -->
<g id="edge5" class="edge">
<title>access&#45;&gt;membership</title>
<path fill="none" stroke="#64748b" d="M370.26,-159.17C386.85,-155.94 404.88,-152.43 420.92,-149.31"/>
<polygon fill="#64748b" stroke="#64748b" points="421.23,-151.74 427.63,-148 420.29,-146.93 421.23,-151.74"/>
</g>
<!-- rls -->
<g id="node5" class="node">
<title>rls</title>
<path fill="#dcfce7" stroke="#16a34a" d="M668.5,-219C668.5,-219 586.9,-219 586.9,-219 580.9,-219 574.9,-213 574.9,-207 574.9,-207 574.9,-195 574.9,-195 574.9,-189 580.9,-183 586.9,-183 586.9,-183 668.5,-183 668.5,-183 674.5,-183 680.5,-189 680.5,-195 680.5,-195 680.5,-207 680.5,-207 680.5,-213 674.5,-219 668.5,-219"/>
<text text-anchor="middle" x="627.7" y="-197.3" font-family="Arial" font-size="11.00" fill="#0f172a">PostgreSQL RLS</text>
</g>
<!-- context&#45;&gt;rls -->
<g id="edge4" class="edge">
<title>context&#45;&gt;rls</title>
<path fill="none" stroke="#64748b" d="M527.92,-201C540.4,-201 553.65,-201 566.25,-201"/>
<polygon fill="#64748b" stroke="#64748b" points="565.91,-203.45 572.91,-201 565.91,-198.55 565.91,-203.45"/>
</g>
<!-- policy -->
<g id="node7" class="node">
<title>policy</title>
<path fill="#fef3c7" stroke="#d97706" d="M673.75,-97C673.75,-97 581.65,-97 581.65,-97 575.65,-97 569.65,-91 569.65,-85 569.65,-85 569.65,-73 569.65,-73 569.65,-67 575.65,-61 581.65,-61 581.65,-61 673.75,-61 673.75,-61 679.75,-61 685.75,-67 685.75,-73 685.75,-73 685.75,-85 685.75,-85 685.75,-91 679.75,-97 673.75,-97"/>
<text text-anchor="middle" x="627.7" y="-75.3" font-family="Arial" font-size="11.00" fill="#0f172a">Authorization Policy</text>
</g>
<!-- membership&#45;&gt;policy -->
<g id="edge6" class="edge">
<title>membership&#45;&gt;policy</title>
<path fill="none" stroke="#64748b" d="M510.49,-124.45C529.05,-117.19 551.46,-108.43 571.62,-100.54"/>
<polygon fill="#64748b" stroke="#64748b" points="572.48,-102.83 578.11,-98 570.7,-98.27 572.48,-102.83"/>
</g>
<!-- commands -->
<g id="node11" class="node">
<title>commands</title>
<path fill="#f8fafc" stroke="#475569" d="M859.1,-128C859.1,-128 737.75,-128 737.75,-128 731.75,-128 725.75,-122 725.75,-116 725.75,-116 725.75,-104 725.75,-104 725.75,-98 731.75,-92 737.75,-92 737.75,-92 859.1,-92 859.1,-92 865.1,-92 871.1,-98 871.1,-104 871.1,-104 871.1,-116 871.1,-116 871.1,-122 865.1,-128 859.1,-128"/>
<text text-anchor="middle" x="798.42" y="-106.3" font-family="Arial" font-size="11.00" fill="#0f172a">Control&#45;plane Commands</text>
</g>
<!-- policy&#45;&gt;commands -->
<g id="edge10" class="edge">
<title>policy&#45;&gt;commands</title>
<path fill="none" stroke="#64748b" d="M685.82,-89.5C695.95,-91.36 706.67,-93.33 717.3,-95.28"/>
<polygon fill="#64748b" stroke="#64748b" points="716.59,-97.64 723.92,-96.49 717.47,-92.82 716.59,-97.64"/>
</g>
<!-- dataplane -->
<g id="node12" class="node">
<title>dataplane</title>
<path fill="#dbeafe" stroke="#2563eb" d="M837.35,-67C837.35,-67 759.5,-67 759.5,-67 753.5,-67 747.5,-61 747.5,-55 747.5,-55 747.5,-43 747.5,-43 747.5,-37 753.5,-31 759.5,-31 759.5,-31 837.35,-31 837.35,-31 843.35,-31 849.35,-37 849.35,-43 849.35,-43 849.35,-55 849.35,-55 849.35,-61 843.35,-67 837.35,-67"/>
<text text-anchor="middle" x="798.42" y="-45.3" font-family="Arial" font-size="11.00" fill="#0f172a">Data&#45;plane Apps</text>
</g>
<!-- policy&#45;&gt;dataplane -->
<g id="edge11" class="edge">
<title>policy&#45;&gt;dataplane</title>
<path fill="none" stroke="#64748b" d="M685.82,-68.84C702.91,-65.8 721.67,-62.47 738.85,-59.41"/>
<polygon fill="#64748b" stroke="#64748b" points="739.19,-61.84 745.65,-58.21 738.33,-57.02 739.19,-61.84"/>
</g>
<!-- lifecycle -->
<g id="node8" class="node">
<title>lifecycle</title>
<path fill="#f8fafc" stroke="#475569" d="M517.65,-97C517.65,-97 421.8,-97 421.8,-97 415.8,-97 409.8,-91 409.8,-85 409.8,-85 409.8,-73 409.8,-73 409.8,-67 415.8,-61 421.8,-61 421.8,-61 517.65,-61 517.65,-61 523.65,-61 529.65,-67 529.65,-73 529.65,-73 529.65,-85 529.65,-85 529.65,-91 523.65,-97 517.65,-97"/>
<text text-anchor="middle" x="469.72" y="-75.3" font-family="Arial" font-size="11.00" fill="#0f172a">Workspace Lifecycle</text>
</g>
<!-- lifecycle&#45;&gt;policy -->
<g id="edge7" class="edge">
<title>lifecycle&#45;&gt;policy</title>
<path fill="none" stroke="#64748b" d="M530.14,-79C540.16,-79 550.61,-79 560.79,-79"/>
<polygon fill="#64748b" stroke="#64748b" points="560.74,-81.45 567.74,-79 560.74,-76.55 560.74,-81.45"/>
</g>
<!-- subscription -->
<g id="node9" class="node">
<title>subscription</title>
<path fill="#f8fafc" stroke="#475569" d="M357.8,-36C357.8,-36 269.45,-36 269.45,-36 263.45,-36 257.45,-30 257.45,-24 257.45,-24 257.45,-12 257.45,-12 257.45,-6 263.45,0 269.45,0 269.45,0 357.8,0 357.8,0 363.8,0 369.8,-6 369.8,-12 369.8,-12 369.8,-24 369.8,-24 369.8,-30 363.8,-36 357.8,-36"/>
<text text-anchor="middle" x="313.62" y="-14.3" font-family="Arial" font-size="11.00" fill="#0f172a">Billing Subscription</text>
</g>
<!-- entitlement -->
<g id="node10" class="node">
<title>entitlement</title>
<path fill="#ffedd5" stroke="#ea580c" d="M511.27,-36C511.27,-36 428.17,-36 428.17,-36 422.17,-36 416.17,-30 416.17,-24 416.17,-24 416.17,-12 416.17,-12 416.17,-6 422.17,0 428.17,0 428.17,0 511.27,0 511.27,0 517.27,0 523.27,-6 523.27,-12 523.27,-12 523.27,-24 523.27,-24 523.27,-30 517.27,-36 511.27,-36"/>
<text text-anchor="middle" x="469.72" y="-14.3" font-family="Arial" font-size="11.00" fill="#0f172a">Entitlement Policy</text>
</g>
<!-- subscription&#45;&gt;entitlement -->
<g id="edge8" class="edge">
<title>subscription&#45;&gt;entitlement</title>
<path fill="none" stroke="#64748b" d="M370.26,-18C382.31,-18 395.11,-18 407.37,-18"/>
<polygon fill="#64748b" stroke="#64748b" points="407.23,-20.45 414.23,-18 407.23,-15.55 407.23,-20.45"/>
</g>
<!-- entitlement&#45;&gt;policy -->
<g id="edge9" class="edge">
<title>entitlement&#45;&gt;policy</title>
<path fill="none" stroke="#64748b" d="M517.95,-36.47C535.05,-43.16 554.5,-50.76 572.18,-57.68"/>
<polygon fill="#64748b" stroke="#64748b" points="570.82,-59.78 578.23,-60.04 572.6,-55.21 570.82,-59.78"/>
</g>
<!-- events -->
<g id="node13" class="node">
<title>events</title>
<path fill="#f8fafc" stroke="#475569" d="M1054.2,-128C1054.2,-128 923.1,-128 923.1,-128 917.1,-128 911.1,-122 911.1,-116 911.1,-116 911.1,-104 911.1,-104 911.1,-98 917.1,-92 923.1,-92 923.1,-92 1054.2,-92 1054.2,-92 1060.2,-92 1066.2,-98 1066.2,-104 1066.2,-104 1066.2,-116 1066.2,-116 1066.2,-122 1060.2,-128 1054.2,-128"/>
<text text-anchor="middle" x="988.65" y="-106.3" font-family="Arial" font-size="11.00" fill="#0f172a">Audit + Post&#45;commit Events</text>
</g>
<!-- commands&#45;&gt;events -->
<g id="edge12" class="edge">
<title>commands&#45;&gt;events</title>
<path fill="none" stroke="#64748b" d="M871.39,-110C881.54,-110 892.06,-110 902.44,-110"/>
<polygon fill="#64748b" stroke="#64748b" points="902.2,-112.45 909.2,-110 902.2,-107.55 902.2,-112.45"/>
</g>
<!-- email -->
<g id="node14" class="node">
<title>email</title>
<path fill="#f8fafc" stroke="#475569" d="M1241.8,-159C1241.8,-159 1118.2,-159 1118.2,-159 1112.2,-159 1106.2,-153 1106.2,-147 1106.2,-147 1106.2,-135 1106.2,-135 1106.2,-129 1112.2,-123 1118.2,-123 1118.2,-123 1241.8,-123 1241.8,-123 1247.8,-123 1253.8,-129 1253.8,-135 1253.8,-135 1253.8,-147 1253.8,-147 1253.8,-153 1247.8,-159 1241.8,-159"/>
<text text-anchor="middle" x="1180" y="-137.3" font-family="Arial" font-size="11.00" fill="#0f172a">Email + Background Work</text>
</g>
<!-- events&#45;&gt;email -->
<g id="edge13" class="edge">
<title>events&#45;&gt;email</title>
<path fill="none" stroke="#64748b" d="M1066.67,-122.61C1076.85,-124.28 1087.31,-125.99 1097.56,-127.67"/>
<polygon fill="#64748b" stroke="#64748b" points="1096.93,-130.05 1104.23,-128.76 1097.72,-125.21 1096.93,-130.05"/>
</g>
<!-- provider -->
<g id="node15" class="node">
<title>provider</title>
<path fill="#f8fafc" stroke="#475569" d="M1226.05,-98C1226.05,-98 1133.95,-98 1133.95,-98 1127.95,-98 1121.95,-92 1121.95,-86 1121.95,-86 1121.95,-74 1121.95,-74 1121.95,-68 1127.95,-62 1133.95,-62 1133.95,-62 1226.05,-62 1226.05,-62 1232.05,-62 1238.05,-68 1238.05,-74 1238.05,-74 1238.05,-86 1238.05,-86 1238.05,-92 1232.05,-98 1226.05,-98"/>
<text text-anchor="middle" x="1180" y="-76.3" font-family="Arial" font-size="11.00" fill="#0f172a">Provider Integration</text>
</g>
<!-- events&#45;&gt;provider -->
<g id="edge14" class="edge">
<title>events&#45;&gt;provider</title>
<path fill="none" stroke="#64748b" d="M1066.67,-97.8C1082.13,-95.35 1098.25,-92.79 1113.28,-90.41"/>
<polygon fill="#64748b" stroke="#64748b" points="1113.49,-92.86 1120.02,-89.34 1112.72,-88.02 1113.49,-92.86"/>
</g>
</g>
</svg>
